PathFileType	4	(X/Y/Z)	Patient4_TMGait_0pt3_01_right_11.trc.trc
DataRate	CameraRate	NumFrames	NumMarkers	Units	OrigDataRate	OrigDataStartFrame	OrigNumFrames
51.282051282051	51.282051282051	4	33	mm	51.282051282051	36	       141
Frame#	Time	Sacral			L.Shoulder			Chest			R.Shoulder			Neck			R.ASIS			L.ASIS			R.Thigh.Superior			R.Thigh.Lateral			R.Thigh.Inferior			R.Patella			L.Thigh.Superior			L.Thigh.Lateral			L.Thigh.Inferior			L.Patella			L.Shank.Superior			L.Shank.Lateral			L.Shank.Inferior			R.Shank.Superior			R.Shank.Lateral			R.Shank.Inferior			R.Heel			R.Midfoot.Superior			R.Midfoot.Lateral			R.Toe			L.Heel			L.Midfoot.Lateral			L.Midfoot.Superior			L.Toe			L.Elbow			L.Wrist			R.Elbow			R.Wrist			
		X1	Y1	Z1	X2	Y2	Z2	X3	Y3	Z3	X4	Y4	Z4	X5	Y5	Z5	X6	Y6	Z6	X7	Y7	Z7	X8	Y8	Z8	X9	Y9	Z9	X10	Y10	Z10	X11	Y11	Z11	X12	Y12	Z12	X13	Y13	Z13	X14	Y14	Z14	X15	Y15	Z15	X16	Y16	Z16	X17	Y17	Z17	X18	Y18	Z18	X19	Y19	Z19	X20	Y20	Z20	X21	Y21	Z21	X22	Y22	Z22	X23	Y23	Z23	X24	Y24	Z24	X25	Y25	Z25	X26	Y26	Z26	X27	Y27	Z27	X28	Y28	Z28	X29	Y29	Z29	X30	Y30	Z30	X31	Y31	Z31	X32	Y32	Z32	X33	Y33	Z33	

36	20.052500000000	633.580247992276	999.073864639854	492.632585758853	839.680520760413	1432.644629893596	358.285237505580	911.125624671972	1359.658279291721	533.741559007978	795.720687387819	1428.850290888054	690.052865353172	793.680681149745	1489.442075231220	515.527590376591	842.141825816438	934.849752760769	646.586552229997	869.625694132658	954.648240964426	374.031329355168	904.116010740872	744.121684189256	617.136450738194	829.295419080554	625.624521594647	663.996379052118	921.824389709940	582.696054711379	593.901066243888	931.218126157403	490.209267801941	600.567439588273	886.283841422214	726.356050271468	391.965961499418	792.071982107810	625.065541544711	310.501591498885	860.263527120236	530.219500742321	373.152068287743	845.353990373573	449.623117535725	367.732631322565	780.698425679205	396.876205779357	350.842128333143	649.495911674437	348.654696772426	284.928584524822	638.240977924146	218.029309111840	337.039348228263	895.828385560700	400.411000990078	598.687529163937	813.600343017464	298.945348274365	650.971570538341	855.065985927291	204.163549576254	588.180240596569	713.094324365628	44.098162367201	545.288868839927	883.763451271221	96.824164846861	593.103890995521	791.713734586100	37.406103262616	625.097812523685	1000.051275956708	42.074804717984	628.283270264873	450.766399820814	126.496526021025	353.386154177047	520.645351883516	100.641384799047	274.529524605894	620.345087398397	126.014177624106	305.679150304250	719.472688888280	36.721073143359	273.137515672047	930.708002231450	1107.845506994191	218.913340436198	1182.466856575653	1111.088541088380	271.850372848942	699.544471866253	1087.267585023100	785.641616624373	780.665682298340	840.096085493089	813.255355626112	
37	20.072000000000	633.061431770574	999.062261973188	497.817007164398	835.989881099936	1433.789737616585	362.228075716683	909.109692697425	1360.945646299544	537.059617543061	794.653541730725	1429.348661502750	694.355889917147	791.087670635611	1490.230812241930	519.951760259568	842.738373578540	935.670548206199	650.580522386715	868.657421112505	955.656790754494	377.938731418811	902.964953511513	743.319139378123	621.097839466176	826.640835785922	625.336040111406	667.071165201513	918.758298485351	581.912961540869	596.894252412053	927.106568725094	489.481708006723	602.938806211062	890.930703821890	728.887262693990	396.863612547107	800.807769842882	625.287294377315	314.716605378318	871.358057363500	531.816235928400	377.854799190884	857.469410867836	449.802841286778	371.211492575030	790.804691445082	397.517979121072	353.789043517968	657.793024353495	354.300734621465	287.787988726684	642.627795140469	223.319617654309	338.049836410521	891.338861214121	399.909882440066	600.618361529885	808.656295550486	298.519916024200	652.272842748024	849.900020618473	203.945841830938	589.083814655048	707.494977293730	43.968014294852	545.453434423095	878.225208478359	96.880506918457	593.392246352478	786.144610460081	37.322791007862	625.230476005420	994.475341908782	42.155001350184	628.423333030309	452.134969762318	138.169266275821	353.742835377647	520.920622371929	111.112909852520	274.239486070800	621.840749914660	131.854886756933	305.535798315105	717.186058817947	38.542227988359	271.159918170433	922.739094207839	1106.343972326033	224.322655049459	1174.468542332715	1094.280428764163	278.599171226265	710.651799465489	1085.566420137867	794.800096805775	804.751170255738	843.239299108533	825.131065919921	
38	20.091500000000	632.310176905299	998.853685027952	502.867113170677	831.794185895148	1434.681636014240	365.705479304743	906.749133623871	1362.130835229275	539.874881940927	793.374093108033	1429.777409833111	698.237370418684	788.204938358427	1490.860180231671	523.913035733503	843.265117917930	936.426861779308	654.310024900139	867.401412215042	956.523280739540	381.538363712288	901.755503981920	742.547122148568	624.566030617787	824.054427193463	625.000123740932	669.842157760909	915.650893345188	581.114441533607	599.470461965594	922.944333981057	488.732857906604	604.878455257499	895.337433295973	731.508165813092	401.450228590605	809.320153754992	625.683849681404	318.624971073622	882.176700555642	533.705954375016	382.311677175517	869.403871414852	450.427892266252	374.522956808205	801.075210416974	398.392357476124	356.473819321750	666.377853375636	359.658840498209	290.712133876133	648.027557057880	228.273893527396	339.001655118322	886.825675583301	399.372241456713	602.226154889693	803.758541362936	298.084952474890	653.379568497450	844.705050793444	203.693227076816	589.807105159386	701.849616436839	43.831010662768	545.585332400583	872.634324014630	96.912347187650	593.602638421062	780.529027541906	37.252529711262	625.341422390637	988.852162964085	42.253499212689	628.527595258266	455.117801051377	148.601992077975	354.603035077797	522.668625100270	120.797816018366	274.205008913901	624.656876047608	137.437063242595	305.321302140728	716.557885038881	40.782246041617	268.678823403681	913.911158972642	1104.548394647067	229.329419006159	1164.611517430406	1075.586641580522	284.432114561152	722.406014821533	1084.165005250580	803.591304611127	829.399048378982	847.429503232544	836.214532578709	
39	20.111000000000	631.373352276910	998.471929425460	507.818288815077	827.158714425325	1435.309465852108	368.755228223511	904.113631441095	1363.211296363476	542.218888651566	791.976787729299	1430.166710468146	701.722695478637	785.097913966806	1491.337373848556	527.425623116248	843.763025149286	937.101470096679	657.762034139157	865.878489756132	957.287473672584	384.827993274295	900.563770633216	741.820451436610	627.495674114063	821.647652301691	624.629887653960	672.304703798349	912.582864807431	580.312375442847	601.589099487346	918.837148721426	487.956334412309	606.367687430170	899.401680783455	734.214317569497	405.632868190019	817.366068229485	626.301713538977	322.202386396063	892.458974213051	535.899920300947	386.441611191012	880.916884406333	451.538225239479	377.625850892378	811.335823001663	399.517194623388	358.900360398418	675.138441453755	364.488429905504	293.675406260203	654.531635199048	232.629920551935	339.940546823700	882.364763970864	398.793765816124	603.495570742780	798.967519307429	297.647703434957	654.296314675676	839.494889601301	203.402070253862	590.338177514156	696.124489098557	43.702288574825	545.682981377482	866.963474633694	96.914925753433	593.732463351996	774.836366879874	37.198692249633	625.429422457369	983.156844829505	42.340273281545	628.595005428473	459.902235617538	157.194687839276	355.966537588072	526.159788791681	129.122201963738	274.490465767652	629.043961346434	142.408500609015	305.121240178706	718.041917169250	43.257240745261	265.931150117135	904.280562616145	1102.415428404806	234.088441539578	1152.657350130216	1055.129368517104	289.253489920067	734.637819787184	1083.153577372272	811.877125616207	854.396421383167	852.784246768399	846.251621234665	
